<?xml version="1.0" encoding="UTF-8"?>
<svg id="Ebene_1" data-name="Ebene 1" xmlns="http://www.w3.org/2000/svg" version="1.1" viewBox="0 0 425.2 198.43">
  <defs>
    <style>
      .cls-1 {
        fill: #cfd0d0;
      }

      .cls-1, .cls-2, .cls-3 {
        stroke-width: 0px;
      }

      .cls-2 {
        fill: #494948;
      }

      .cls-3 {
        fill: #878786;
      }
    </style>
  </defs>
  <g>
    <path class="cls-2" d="M192.87,91.67c2,1.13,3,2.87,3,5.24h-7.54c0-.79-.36-1.35-1.06-1.67-.49-.27-1.1-.41-1.83-.41-1.96,0-2.94.46-2.94,1.39,0,.52.34.88,1.02,1.1.68.22,1.8.45,3.35.69,1.9.27,3.49.59,4.77.96s2.39,1.02,3.34,1.96,1.43,2.25,1.43,3.94c0,2.75-1.02,4.7-3.08,5.87-2.05,1.17-4.74,1.75-8.05,1.75-1.9,0-3.7-.27-5.38-.8-1.69-.53-3.06-1.35-4.12-2.47s-1.59-2.53-1.59-4.24h7.54v.16c.03.92.41,1.57,1.16,1.94s1.54.55,2.39.55c2.26,0,3.38-.53,3.38-1.59,0-.54-.35-.94-1.06-1.18-.71-.25-1.86-.5-3.47-.77-1.93-.33-3.51-.68-4.75-1.06s-2.32-1.03-3.24-1.94-1.39-2.18-1.39-3.81c0-2.64,1-4.51,3-5.63,2-1.12,4.6-1.67,7.81-1.67,2.88,0,5.32.57,7.32,1.69h-.01Z"/>
    <path class="cls-2" d="M199.76,87.94v-5.51h8.12v5.51h-8.12ZM199.76,112v-21.53h8.12v21.53h-8.12Z"/>
    <path class="cls-2" d="M228.16,90.47v5.51h-4.57v8.2c0,.98.16,1.69.49,2.14s.92.67,1.79.67h2.28v4.77c-.65.22-1.5.39-2.53.53s-1.93.2-2.69.2c-2.39,0-4.23-.44-5.53-1.31s-1.94-2.35-1.94-4.44v-10.76h-3.02v-5.51h3.34l1.75-6.52h6.03v6.52h4.6Z"/>
    <path class="cls-1" d="M232.56,112v-7.05h7.51v7.05h-7.51Z"/>
    <path class="cls-2" d="M174.16,131.08v-5.51h8.12v5.51h-8.12ZM174.16,155.14v-21.53h8.12v21.53h-8.12Z"/>
    <path class="cls-2" d="M207.92,135.2c1.25,1.39,1.87,3.38,1.87,5.99v13.95h-8.12v-12.97c0-.92-.24-1.66-.71-2.22s-1.15-.84-2.02-.84c-1.01,0-1.82.33-2.45.98-.62.65-.94,1.46-.94,2.41v12.64h-8.12v-21.53h6.65l.53,3.26c.84-1.14,1.95-2.05,3.32-2.73s2.82-1.02,4.34-1.02c2.5,0,4.38.69,5.63,2.08h.02Z"/>
    <path class="cls-2" d="M232.21,134.82c2,1.13,3,2.87,3,5.24h-7.54c0-.79-.36-1.35-1.06-1.67-.49-.27-1.1-.41-1.83-.41-1.96,0-2.94.46-2.94,1.39,0,.52.34.88,1.02,1.1.68.22,1.8.45,3.35.69,1.9.27,3.49.59,4.77.96,1.28.37,2.39,1.02,3.34,1.96s1.43,2.25,1.43,3.94c0,2.75-1.02,4.7-3.08,5.87-2.05,1.17-4.74,1.75-8.05,1.75-1.9,0-3.7-.27-5.38-.8-1.69-.53-3.06-1.35-4.12-2.47s-1.59-2.53-1.59-4.24h7.54v.16c.03.92.41,1.57,1.16,1.94s1.54.55,2.39.55c2.26,0,3.38-.53,3.38-1.59,0-.54-.35-.94-1.06-1.18-.71-.25-1.86-.5-3.47-.77-1.93-.33-3.51-.68-4.75-1.06s-2.32-1.03-3.24-1.94-1.39-2.18-1.39-3.81c0-2.64,1-4.51,3-5.63,2-1.12,4.6-1.67,7.81-1.67,2.88,0,5.32.57,7.32,1.69h-.01Z"/>
    <path class="cls-2" d="M253.92,133.61v5.51h-4.57v8.2c0,.98.16,1.69.49,2.14s.92.67,1.79.67h2.28v4.77c-.65.22-1.5.39-2.53.53s-1.93.2-2.69.2c-2.39,0-4.23-.44-5.53-1.31s-1.94-2.35-1.94-4.44v-10.76h-3.02v-5.51h3.34l1.75-6.52h6.03v6.52h4.6Z"/>
    <path class="cls-2" d="M257.95,131.08v-5.51h8.12v5.51h-8.12ZM257.95,155.14v-21.53h8.12v21.53h-8.12Z"/>
    <path class="cls-2" d="M285.6,133.61v5.51h-4.57v8.2c0,.98.16,1.69.49,2.14s.92.67,1.79.67h2.28v4.77c-.65.22-1.5.39-2.53.53s-1.93.2-2.69.2c-2.39,0-4.23-.44-5.53-1.31s-1.94-2.35-1.94-4.44v-10.76h-3.02v-5.51h3.34l1.75-6.52h6.03v6.52h4.6Z"/>
    <path class="cls-2" d="M304.97,155.14l-.53-3.26c-.84,1.17-1.95,2.09-3.32,2.75-1.37.67-2.82,1-4.34,1-2.5,0-4.38-.69-5.63-2.08s-1.87-3.38-1.87-5.99v-13.95h8.12v12.97c0,.92.24,1.66.71,2.22.48.56,1.15.84,2.02.84,1.01,0,1.82-.33,2.45-.98.62-.65.94-1.45.94-2.41v-12.64h8.12v21.53h-6.67Z"/>
    <path class="cls-2" d="M330.91,133.61v5.51h-4.57v8.2c0,.98.16,1.69.49,2.14s.92.67,1.8.67h2.28v4.77c-.65.22-1.5.39-2.53.53s-1.93.2-2.69.2c-2.39,0-4.23-.44-5.53-1.31s-1.94-2.35-1.94-4.44v-10.76h-3.02v-5.51h3.35l1.75-6.52h6.04v6.52h4.57Z"/>
    <path class="cls-2" d="M354.82,135.9c2.08,1.85,3.12,4.68,3.12,8.48v1.39h-16.15c0,1.55.35,2.72,1.04,3.51s1.79,1.18,3.28,1.18c1.36,0,2.36-.29,3-.86s.96-1.33.96-2.28h7.87c0,2.61-.99,4.65-2.97,6.12-1.99,1.47-4.88,2.2-8.69,2.2-4,0-7.09-.93-9.3-2.79-2.2-1.86-3.3-4.68-3.3-8.46s1.07-6.5,3.22-8.4,5.11-2.86,8.89-2.86,6.95.92,9.03,2.77h0ZM341.83,141.93h7.91c0-1.11-.32-2-.96-2.65-.64-.65-1.53-.98-2.67-.98-2.56,0-3.98,1.21-4.28,3.63h0Z"/>
  </g>
  <g>
    <path class="cls-3" d="M126.13,79.15l-57.19,40.17c-3.23,2.44-1.51,7.59,2.54,7.59h57.19c2.33,0,4.22-1.89,4.22-4.22v-40.17c0-3.49-3.99-5.47-6.77-3.37h0Z"/>
    <path class="cls-3" d="M153.34,42.79h-57.19c-2.33,0-4.22,1.89-4.22,4.22v40.17c0,3.49,3.99,5.47,6.77,3.37l57.19-40.17c3.23-2.44,1.51-7.59-2.54-7.59h0Z"/>
  </g>
  <path class="cls-1" d="M153.55,126.93h-10.57c-2.25,0-4.08-1.83-4.08-4.08v-50.44c0-1.28.6-2.49,1.62-3.26l10.57-7.33c2.79-1.92,6.53-.11,6.53,3.26v57.77c0,2.25-1.83,4.08-4.08,4.08h.01Z"/>
</svg>